<?xml version="1.0" encoding="utf-8"?>
<!-- Svg Vector Icons : http://www.onlinewebfonts.com/icon -->
<!DOCTYPE svg PUBLIC "-//W3C//DTD SVG 1.1//EN" "http://www.w3.org/Graphics/SVG/1.1/DTD/svg11.dtd">
<svg version="1.1" xmlns="http://www.w3.org/2000/svg" xmlns:xlink="http://www.w3.org/1999/xlink" x="0px" y="0px" viewBox="0 0 1000 1000" enable-background="new 0 0 1000 1000" xml:space="preserve">
<metadata> Svg Vector Icons : http://www.onlinewebfonts.com/icon </metadata>
<g><path d="M620.3,167.7c3.3,6.5,7.4,12.3,12.3,17.1c4.9,4.9,10.9,7.3,18.1,7.3h0h144v-15.7c0-3.9-0.7-8.5-2-13.7c-1.3-5.2-4.7-11.6-10.3-19.1c-5.6-7.5-13.6-16.6-24-27.4c-10.4-10.8-24.5-24-42.1-39.7c-16.3-14.4-29.9-25.9-40.7-34.8c-10.8-8.8-19.9-15.7-27.4-20.6c-7.5-4.9-13.9-8-19.1-9.3c-5.2-1.3-10.8-2-16.6-2h-2v120.5c0,4.6,0.8,10.3,2.4,17.1C614.5,154.5,617,161.2,620.3,167.7z"/><path d="M609.5,744.6L609.5,744.6l-367.3,0c-16.9,0-31.3-5.9-43.1-17.6c-11.8-11.7-17.7-26.1-17.6-43.1c0-17,5.9-31.5,17.6-43.6c11.7-12.1,26.1-18.1,43.1-18.1h367.3c17,0,31.5,6,43.6,18.1c12.1,12.1,18.1,26.6,18.1,43.6c0,12.4-3.6,23.8-10.8,34.3l134.2-139.1V254.9h-143c-18.3,0-33.9-4.1-47-12.3c-13.1-8.2-23.7-18.3-31.8-30.4c-8.1-12.1-14.2-25.3-18.1-39.7c-3.9-14.4-5.9-27.7-5.9-40.2V10H173.6c-15,0-29.4,4.1-43.1,12.3c-13.7,8.2-26,18.3-36.7,30.4C83,64.7,74.5,78.3,68.3,93.3c-6.2,15-9.3,29.4-9.3,43.1v667c0,16.3,4.2,32.2,12.7,47.5c8.5,15.4,19.1,28.9,31.8,40.6c12.7,11.7,26.5,21.2,41.2,28.4c14.7,7.2,28.2,10.8,40.6,10.8h270.3l190-197.9C635.9,740.6,623.8,744.6,609.5,744.6z M199.1,395.4c11.7-12.1,26.1-18.1,43.1-18.1h367.3c17,0,31.5,6,43.6,18.1c12.1,12.1,18.1,26.6,18.1,43.6c0,17-6,31.3-18.1,43.1c-12.1,11.8-26.6,17.6-43.6,17.6H242.2c-16.9,0-31.3-5.9-43.1-17.6c-11.8-11.7-17.7-26.1-17.6-43.1C181.5,422,187.4,407.5,199.1,395.4z"/><path d="M937,653.5L937,653.5c-3.9-9.1-9.6-17.8-17.1-26c-7.5-8.2-14.5-13.9-21.1-17.1c-5.9-3.3-13.4-5.4-22.5-6.4c-9.2-1-17.6,2.1-25.5,9.3c-3.3,2.6-7.4,6.2-12.3,10.8c-4.9,4.6-9.3,8.5-13.2,11.7l83.2,82.3c2-1.3,4.3-3.3,6.9-5.9c2-1.9,4.2-4.4,6.9-7.3c2.6-2.9,5.5-6,8.8-9.3c7.2-7.2,10.5-14.7,9.8-22.5C940.3,665.2,939,658.7,937,653.5z"/><path d="M698.1,762.2c-11.8,11.8-23.5,23.7-35.3,35.8c-11.7,12.1-22.5,23-32.3,32.8L593.3,868l0,0c-6.5,6.5-11.7,14.1-15.7,22.5c-1.3,2.6-3.1,7.5-5.4,14.7c-2.3,7.2-4.7,14.8-7.3,23c-2.6,8.2-4.9,16.2-6.9,24c-2,7.8-3.3,13.7-3.9,17.6c-1.3,7.8-0.6,13.4,2,16.6c2.6,3.3,7.8,4.3,15.7,2.9c3.9-0.6,9.8-2,17.6-3.9c7.8-2,16-4.3,24.5-6.9c8.5-2.6,16.8-5.4,25-8.3c8.2-2.9,14.2-5.4,18.1-7.3c3.9-1.9,7.8-4.4,11.8-7.3c3.9-2.9,7.5-5.7,10.8-8.3c0.7-0.7,4.1-4.3,10.3-10.8c6.2-6.5,13.9-14.4,23-23.5l162.6-162.6l-82.3-82.3C757.8,702.8,726.1,734.1,698.1,762.2z"/></g>
</svg>